<svg width="16" height="16" viewBox="0 0 16 16" fill="none" xmlns="http://www.w3.org/2000/svg">
<path d="M1.33203 2.9987H11.332M11.332 2.9987C11.332 3.91917 12.0782 4.66536 12.9987 4.66536C13.9192 4.66536 14.6654 3.91917 14.6654 2.9987C14.6654 2.07822 13.9192 1.33203 12.9987 1.33203C12.0782 1.33203 11.332 2.07822 11.332 2.9987ZM4.66536 7.9987H14.6654M4.66536 7.9987C4.66536 8.91917 3.91917 9.66536 2.9987 9.66536C2.07822 9.66536 1.33203 8.91917 1.33203 7.9987C1.33203 7.07822 2.07822 6.33203 2.9987 6.33203C3.91917 6.33203 4.66536 7.07822 4.66536 7.9987ZM1.33203 12.9987H11.332M11.332 12.9987C11.332 13.9192 12.0782 14.6654 12.9987 14.6654C13.9192 14.6654 14.6654 13.9192 14.6654 12.9987C14.6654 12.0782 13.9192 11.332 12.9987 11.332C12.0782 11.332 11.332 12.0782 11.332 12.9987Z" stroke="#191919" stroke-width="1.5" stroke-linecap="round"/>
</svg>
