<svg width="49" height="48" viewBox="0 0 49 48" fill="none" xmlns="http://www.w3.org/2000/svg">
<path fill-rule="evenodd" clip-rule="evenodd" d="M13.25 18C13.25 14.9624 15.7124 12.5 18.75 12.5H31.25C34.2876 12.5 36.75 14.9624 36.75 18V30.5C36.75 33.5376 34.2876 36 31.25 36H18.75C15.7124 36 13.25 33.5376 13.25 30.5V18ZM18.75 11C14.884 11 11.75 14.134 11.75 18V30.5C11.75 34.366 14.884 37.5 18.75 37.5H31.25C35.116 37.5 38.25 34.366 38.25 30.5V18C38.25 14.134 35.116 11 31.25 11H18.75ZM23.0953 20.4229C23.8888 20.0112 24.7919 19.8602 25.6761 19.9913C26.5781 20.125 27.4132 20.5453 28.0579 21.1901C28.7027 21.8349 29.123 22.6699 29.2568 23.5719C29.3879 24.4562 29.2369 25.3593 28.8251 26.1527C28.4134 26.9462 27.762 27.5897 26.9635 27.9916C26.165 28.3935 25.2601 28.5334 24.3775 28.3913C23.495 28.2493 22.6796 27.8326 22.0475 27.2005C21.4154 26.5684 20.9987 25.7531 20.8567 24.8705C20.7147 23.9879 20.8546 23.0831 21.2565 22.2846C21.6584 21.4861 22.3018 20.8346 23.0953 20.4229ZM25.8962 18.5075C24.6998 18.3301 23.478 18.5345 22.4045 19.0915C21.3309 19.6485 20.4604 20.5299 19.9166 21.6102C19.3729 22.6905 19.1836 23.9147 19.3758 25.1088C19.5679 26.3029 20.1317 27.406 20.9869 28.2612C21.8421 29.1164 22.9452 29.6801 24.1392 29.8723C25.3333 30.0644 26.5576 29.8752 27.6379 29.3314C28.7182 28.7877 29.5995 27.9171 30.1566 26.8436C30.7136 25.7701 30.9179 24.5482 30.7405 23.3519C30.5596 22.1316 29.9909 21.0018 29.1186 20.1295C28.2463 19.2571 27.1165 18.6885 25.8962 18.5075Z" fill="white"/>
</svg>
