<svg width="49" height="48" viewBox="0 0 49 48" fill="none" xmlns="http://www.w3.org/2000/svg">
<path fill-rule="evenodd" clip-rule="evenodd" d="M13.2885 15.8864C13.4575 15.0979 14.1638 14.5 15.0001 14.5H35.0001C35.8363 14.5 36.5426 15.0979 36.7116 15.8864L25.0001 24.0845L13.2885 15.8864ZM11.7501 16.2379C11.75 16.245 11.75 16.2521 11.7501 16.2592V31.25C11.7501 33.0392 13.2109 34.5 15.0001 34.5H35.0001C36.7893 34.5 38.2501 33.0392 38.2501 31.25V16.2592M36.7501 17.6905V31.25C36.7501 32.2108 35.9609 33 35.0001 33H15.0001C14.0393 33 13.2501 32.2108 13.2501 31.25V17.6905L24.57 25.6144C24.8282 25.7952 25.1719 25.7952 25.4302 25.6144L36.7501 17.6905ZM38.25 16.238C38.2435 14.4542 36.7853 13 35.0001 13H15.0001C13.2149 13 11.7566 14.4542 11.7501 16.2379" fill="white"/>
</svg>
