<svg width="22" height="22" viewBox="0 0 22 22" fill="none" xmlns="http://www.w3.org/2000/svg">
<path d="M20.7161 17.332C20.7161 17.692 20.6361 18.062 20.4661 18.422C20.2961 18.782 20.0761 19.122 19.7861 19.442C19.2961 19.982 18.7561 20.372 18.1461 20.622C17.5461 20.872 16.8961 21.002 16.1961 21.002C15.1761 21.002 14.0861 20.762 12.9361 20.272C11.7861 19.782 10.6361 19.122 9.49609 18.292C8.34609 17.452 7.25609 16.522 6.21609 15.492C5.18609 14.452 4.25609 13.362 3.42609 12.222C2.60609 11.082 1.94609 9.94195 1.46609 8.81195C0.986094 7.67195 0.746094 6.58195 0.746094 5.54195C0.746094 4.86195 0.866094 4.21195 1.10609 3.61195C1.34609 3.00195 1.72609 2.44195 2.25609 1.94195C2.89609 1.31195 3.59609 1.00195 4.33609 1.00195C4.61609 1.00195 4.89609 1.06195 5.14609 1.18195C5.40609 1.30195 5.63609 1.48195 5.81609 1.74195L8.13609 5.01195C8.3161 5.26195 8.44609 5.49195 8.53609 5.71195C8.62609 5.92195 8.6761 6.13195 8.6761 6.32195C8.6761 6.56195 8.60609 6.80195 8.46609 7.03195C8.33609 7.26195 8.14609 7.50195 7.90609 7.74195L7.14609 8.53195C7.03609 8.64195 6.98609 8.77195 6.98609 8.93195C6.98609 9.01195 6.99609 9.08195 7.01609 9.16195C7.04609 9.24195 7.07609 9.30195 7.09609 9.36195C7.27609 9.69195 7.58609 10.122 8.02609 10.642C8.47609 11.162 8.95609 11.692 9.47609 12.222C10.0161 12.752 10.5361 13.242 11.0661 13.692C11.5861 14.132 12.0161 14.432 12.3561 14.612C12.4061 14.632 12.4661 14.662 12.5361 14.692C12.6161 14.722 12.6961 14.732 12.7861 14.732C12.9561 14.732 13.0861 14.672 13.1961 14.562L13.9561 13.812C14.2061 13.562 14.4461 13.372 14.6761 13.252C14.9061 13.112 15.1361 13.042 15.3861 13.042C15.5761 13.042 15.7761 13.082 15.9961 13.172C16.2161 13.262 16.4461 13.392 16.6961 13.562L20.0061 15.912C20.2661 16.092 20.4461 16.302 20.5561 16.552C20.6561 16.802 20.7161 17.052 20.7161 17.332Z" stroke="#292D32" stroke-width="1.5" stroke-miterlimit="10"/>
</svg>
