<svg width="49" height="48" viewBox="0 0 49 48" fill="none" xmlns="http://www.w3.org/2000/svg">
<path fill-rule="evenodd" clip-rule="evenodd" d="M25 11C17.7108 11 11.75 16.9608 11.75 24.25C11.75 26.5349 12.3567 28.6871 13.3265 30.5907L12.2146 34.8673C11.8738 36.1779 13.0869 37.3623 14.389 36.9903L18.524 35.8089C20.4571 36.8998 22.7282 37.5 25 37.5C32.2892 37.5 38.25 31.5392 38.25 24.25C38.25 16.9608 32.2892 11 25 11ZM13.25 24.25C13.25 17.7892 18.5392 12.5 25 12.5C31.4608 12.5 36.75 17.7892 36.75 24.25C36.75 30.7108 31.4608 36 25 36C22.8844 36 20.768 35.4111 19.0109 34.3569C18.8329 34.2501 18.6186 34.2218 18.419 34.2789L13.9769 35.548C13.7909 35.6012 13.6176 35.4319 13.6663 35.2447L14.8509 30.6887C14.8982 30.5065 14.8754 30.3132 14.7868 30.1471C13.8359 28.3642 13.25 26.3595 13.25 24.25ZM20.7514 19.6886C20.9986 19.4456 21.212 19.375 21.3974 19.375L25.6341 26.9759L25.6498 26.983L25.6541 26.985L25.6542 26.985C25.6693 26.9919 25.6945 27.0035 25.7218 27.0151L25.7377 27.0219L25.7538 27.028C25.9084 27.0859 26.049 27.0981 26.1577 27.0981C26.4615 27.0981 26.7216 26.9788 26.9164 26.7854L27.3432 26.3649L27.3432 26.3649L27.3467 26.3614C27.4572 26.251 27.5312 26.2004 27.5689 26.1808L27.5908 26.1694L27.6119 26.1565C27.6189 26.1523 27.624 26.1496 27.6274 26.148L27.634 26.1491C27.6424 26.1509 27.6582 26.155 27.6824 26.1649C27.7423 26.1894 27.8232 26.2323 27.9332 26.3065L29.7913 27.6237L29.7912 27.6238L29.7985 27.6288C29.826 27.6478 29.8384 27.6608 29.843 27.6662L29.8461 27.67C29.8688 27.7312 29.875 27.7721 29.875 27.8106C29.875 27.9005 29.8553 27.9992 29.8062 28.1031C29.7402 28.2425 29.6567 28.3712 29.5457 28.4934C29.3359 28.7242 29.1217 28.8736 28.8931 28.9671L28.8891 28.9688C28.6459 29.07 28.378 29.125 28.0787 29.125C27.6225 29.125 27.1084 29.0179 26.5358 28.7742C25.9456 28.5231 25.347 28.1813 24.7459 27.7444C24.13 27.2952 23.5454 26.7974 22.9864 26.2449C22.4334 25.687 21.9355 25.1041 21.492 24.4961C21.0574 23.8925 20.7159 23.3005 20.4712 22.7256C20.2328 22.1599 20.125 21.6463 20.125 21.1788C20.125 20.8853 20.1767 20.615 20.274 20.372L20.274 20.372L20.2756 20.3681C20.3678 20.134 20.5166 19.91 20.7399 19.6997L20.7457 19.6942L20.7514 19.6886ZM21.3974 19.375L23.0901 21.6148C23.0874 21.6046 23.0825 21.5895 23.0743 21.5702L23.0694 21.5588L23.0694 21.5587C23.0454 21.5001 23.004 21.4222 22.9298 21.3193L22.9267 21.315L22.9267 21.315L21.6198 19.4757L21.6148 19.4686L21.6148 19.4686C21.6038 19.4526 21.5933 19.442 21.5834 19.4339C21.5733 19.4255 21.5595 19.4165 21.5398 19.4074L21.5295 19.4027L21.5296 19.4026C21.4963 19.3867 21.4503 19.375 21.3974 19.375ZM21.3974 17.875C20.7517 17.875 20.1784 18.1509 19.7057 18.6132C19.3352 18.9636 19.0581 19.3671 18.8808 19.8162C18.7083 20.2477 18.625 20.7079 18.625 21.1788C18.625 21.8809 18.7875 22.5932 19.0895 23.3095L19.0905 23.3117C19.3863 24.0072 19.7879 24.6967 20.2762 25.3746L20.2762 25.3746L20.2788 25.3781C20.7695 26.0511 21.3181 26.6929 21.924 27.3038L21.924 27.3038L21.9291 27.3089C22.541 27.914 23.1836 28.4615 23.8623 28.9566L23.8633 28.9573C24.5464 29.4539 25.2433 29.8545 25.9486 30.1545C26.6717 30.4622 27.3856 30.625 28.0787 30.625C28.5673 30.625 29.0311 30.534 29.4633 30.3545C29.9211 30.1668 30.3145 29.8778 30.6561 29.5019L30.6565 29.5016C30.8723 29.2638 31.0366 29.01 31.1622 28.7444C31.3046 28.4433 31.375 28.1258 31.375 27.8106C31.375 27.5381 31.3149 27.3022 31.2311 27.093L31.2263 27.0811L31.2212 27.0694C31.096 26.7854 30.8967 26.5653 30.6556 26.3978L28.7941 25.0781L28.7879 25.0738L28.7817 25.0695C28.613 24.955 28.4365 24.8526 28.2496 24.7763C28.048 24.694 27.8392 24.6475 27.6224 24.6475C27.3369 24.6475 27.0811 24.7284 26.854 24.862C26.6423 24.9762 26.4538 25.1334 26.2887 25.2981L26.0799 25.5038C25.9704 25.4295 25.8352 25.3274 25.6733 25.1907C25.396 24.9555 25.1191 24.6956 24.823 24.4056C24.5464 24.1238 24.2893 23.8404 24.0457 23.5595C23.9108 23.4002 23.8082 23.2674 23.733 23.1604L23.9439 22.9415C24.1081 22.7768 24.2576 22.594 24.3709 22.3965C24.5102 22.1642 24.5923 21.8994 24.5923 21.6175C24.5923 21.3871 24.5339 21.1695 24.4551 20.9844C24.3783 20.7984 24.2747 20.6201 24.1481 20.4442L22.8447 18.6099C22.6623 18.3484 22.4272 18.1657 22.1727 18.0475C21.9257 17.9301 21.6582 17.875 21.3974 17.875Z" fill="#F8F8F8"/>
</svg>
